<svg width="18" height="21" viewBox="0 0 18 21" fill="none" xmlns="http://www.w3.org/2000/svg">
<path d="M10.6172 16.2709L10.423 15.2899L9.98468 15.3767L9.75689 15.7611L10.6172 16.2709ZM7.38264 16.2708L8.24293 15.761L8.01515 15.3767L7.57685 15.2899L7.38264 16.2708ZM8.99992 19L8.13963 19.5098L8.99992 20.9615L9.86021 19.5098L8.99992 19ZM16 8.71429C16 11.9292 13.6318 14.6547 10.423 15.2899L10.8114 17.2518C14.8887 16.4447 18 12.9519 18 8.71429H16ZM9 2C12.9006 2 16 5.04005 16 8.71429H18C18 3.86755 13.936 0 9 0V2ZM2 8.71429C2 5.04005 5.09942 2 9 2V0C4.06403 0 0 3.86755 0 8.71429H2ZM7.57685 15.2899C4.36817 14.6546 2 11.9292 2 8.71429H0C0 12.9518 3.11125 16.4446 7.18843 17.2518L7.57685 15.2899ZM6.52235 16.7806L8.13963 19.5098L9.86021 18.4902L8.24293 15.761L6.52235 16.7806ZM9.86021 19.5098L11.4775 16.7807L9.75689 15.7611L8.13963 18.4902L9.86021 19.5098Z" fill="#C08F53"/>
<circle cx="9" cy="9" r="3" stroke="#C08F53" stroke-width="2"/>
</svg>
