<svg width="48" height="56" viewBox="0 0 48 56" fill="none" xmlns="http://www.w3.org/2000/svg">
<path fill-rule="evenodd" clip-rule="evenodd" d="M28.8518 47.5093C39.7807 45.2657 48 35.5927 48 24C48 10.7452 37.2548 0 24 0C10.7452 0 0 10.7452 0 24C0 35.5927 8.21926 45.2657 19.1482 47.5093L24 56L28.8518 47.5093Z" fill="#C08F53"/>
<path d="M25.3337 23.1745V27.1725H14.6668V23.6982L23.2059 19.5559L20.0005 18L12 21.8824V30H27.9995L28 21.8824L27.9984 21.8813L25.3337 23.1745Z" fill="white"/>
<path d="M27.9997 18L20 21.8824V26.4715H22.6664V23.6982L27.9997 21.1101L33.3331 23.6982V27.1725H28.6603V30H36V21.8824L27.9997 18Z" fill="white"/>
</svg>
