<svg width="48" height="56" viewBox="0 0 48 56" fill="none" xmlns="http://www.w3.org/2000/svg">
<path fill-rule="evenodd" clip-rule="evenodd" d="M28.8518 47.5093C39.7807 45.2657 48 35.5927 48 24C48 10.7452 37.2548 0 24 0C10.7452 0 0 10.7452 0 24C0 35.5927 8.21926 45.2657 19.1482 47.5093L24 56L28.8518 47.5093Z" fill="#333441"/>
<path d="M34 19.9474C34 18.3197 32.6568 17 31 17C29.8353 17 28.8378 17.6587 28.3405 18.6107C27.355 18.0581 26.2165 17.7368 25 17.7368C23.7835 17.7368 22.645 18.0581 21.6595 18.6107C21.1622 17.6587 20.1647 17 19 17C17.3432 17 16 18.3197 16 19.9474C16 21.3857 17.05 22.5801 18.4375 22.8395C18.319 23.3309 18.25 23.8408 18.25 24.3684C18.25 28.0313 21.2717 31 25 31C28.7283 31 31.75 28.0313 31.75 24.3684C31.75 23.8408 31.6803 23.3309 31.5625 22.8395C32.95 22.5801 34 21.3857 34 19.9474Z" stroke="#C08F53" stroke-width="2" stroke-miterlimit="10"/>
<path d="M25 25.8423V28.7897" stroke="#C08F53" stroke-width="2" stroke-miterlimit="10"/>
<path d="M26.5 25.8423H25H23.5" stroke="#C08F53" stroke-width="2" stroke-miterlimit="10"/>
<path d="M22 22.8945V24.3682" stroke="#C08F53" stroke-width="2" stroke-miterlimit="10"/>
<path d="M28 22.8945V24.3682" stroke="#C08F53" stroke-width="2" stroke-miterlimit="10"/>
</svg>
