<svg width="48" height="56" viewBox="0 0 48 56" fill="none" xmlns="http://www.w3.org/2000/svg">
<path fill-rule="evenodd" clip-rule="evenodd" d="M28.8518 47.5093C39.7807 45.2657 48 35.5927 48 24C48 10.7452 37.2548 0 24 0C10.7452 0 0 10.7452 0 24C0 35.5927 8.21926 45.2657 19.1482 47.5093L24 56L28.8518 47.5093Z" fill="#C08F53"/>
<path opacity="0.9" d="M21 20C21.05 20 21.097 20.013 21.146 20.015C21.061 19.688 21 19.353 21 19C21 16.791 22.791 15 25 15C27.209 15 29 16.791 29 19C29 19.353 28.939 19.688 28.854 20.015C28.904 20.013 28.951 20 29 20C31.209 20 33 21.791 33 24C33 26.209 31.209 28 29 28C26.791 28 23.209 28 21 28C18.791 28 17 26.209 17 24C17 21.791 18.791 20 21 20Z" stroke="white" stroke-width="2" stroke-miterlimit="10" stroke-linejoin="round"/>
<path opacity="0.9" d="M25 20V33" stroke="white" stroke-width="2" stroke-miterlimit="10" stroke-linejoin="round"/>
<path opacity="0.9" d="M28 23L25 25" stroke="white" stroke-width="2" stroke-miterlimit="10" stroke-linejoin="round"/>
<path d="M22 22L25 24" stroke="white" stroke-width="2" stroke-miterlimit="10" stroke-linejoin="round"/>
</svg>
