<svg width="48" height="56" viewBox="0 0 48 56" fill="none" xmlns="http://www.w3.org/2000/svg">
<path fill-rule="evenodd" clip-rule="evenodd" d="M28.8518 47.5093C39.7807 45.2657 48 35.5927 48 24C48 10.7452 37.2548 0 24 0C10.7452 0 0 10.7452 0 24C0 35.5927 8.21926 45.2657 19.1482 47.5093L24 56L28.8518 47.5093Z" fill="#333441"/>
<path d="M31.8529 17.1468C30.1802 15.4741 27.2904 15.6518 25.3972 17.545L18.545 24.3972C16.6518 26.2904 16.4741 29.1802 18.1468 30.8529C19.8195 32.5255 22.7093 32.3479 24.6016 30.4555L31.4547 23.6025C33.3479 21.7093 33.5263 18.8195 31.8529 17.1468Z" stroke="#C08F53" stroke-width="2" stroke-miterlimit="10"/>
<path d="M21.9712 20.9712L28.0287 27.0287" stroke="#C08F53" stroke-width="2" stroke-miterlimit="10"/>
</svg>
