<svg width="48" height="56" viewBox="0 0 48 56" fill="none" xmlns="http://www.w3.org/2000/svg">
<path fill-rule="evenodd" clip-rule="evenodd" d="M28.8518 47.5093C39.7807 45.2657 48 35.5927 48 24C48 10.7452 37.2548 0 24 0C10.7452 0 0 10.7452 0 24C0 35.5927 8.21926 45.2657 19.1482 47.5093L24 56L28.8518 47.5093Z" fill="#333441"/>
<path d="M32.8195 18.7909L21.6424 29.968L17 32L19.0314 27.3576L30.2091 16.1805C30.4497 15.9398 30.8386 15.9398 31.0792 16.1805L32.8195 17.9208C33.0602 18.1614 33.0602 18.5509 32.8195 18.7909Z" stroke="#C08F53" stroke-width="2" stroke-miterlimit="10"/>
<path d="M28.0334 18.356L30.6445 20.967" stroke="#C08F53" stroke-width="2" stroke-miterlimit="10"/>
</svg>
